<svg xmlns="http://www.w3.org/2000/svg" width="580" height="645" viewBox="0 0 580 645" font-family="sans-serif">
<rect width="580" height="645" fill="#ffffff"/>
<circle cx="290.0" cy="300.0" r="206.4" fill="none" stroke="#eceff1" stroke-width="1"/>
<text x="292.0" y="104.6" font-size="9" fill="#b0bec5">40&#8243;</text>
<circle cx="290.0" cy="300.0" r="154.8" fill="none" stroke="#eceff1" stroke-width="1"/>
<text x="292.0" y="156.2" font-size="9" fill="#b0bec5">30&#8243;</text>
<circle cx="290.0" cy="300.0" r="103.2" fill="none" stroke="#eceff1" stroke-width="1"/>
<text x="292.0" y="207.8" font-size="9" fill="#b0bec5">20&#8243;</text>
<rect x="238.4" y="248.4" width="103.2" height="103.2" fill="#fafafa" fill-opacity="0.6" stroke="#90a4ae" stroke-width="1.5"/>
<circle cx="290.0" cy="300.0" r="51.6" fill="none" stroke="#1565c0" stroke-width="2"/>
<line x1="283.0" y1="300.0" x2="297.0" y2="300.0" stroke="#37474f" stroke-width="1.3"/>
<line x1="290.0" y1="293.0" x2="290.0" y2="307.0" stroke="#37474f" stroke-width="1.3"/>
<circle cx="379.8" cy="360.3" r="2.1" fill="#c62828" fill-opacity="0.5"/>
<circle cx="401.7" cy="241.1" r="2.1" fill="#c62828" fill-opacity="0.5"/>
<circle cx="265.6" cy="252.5" r="2.1" fill="#c62828" fill-opacity="0.5"/>
<circle cx="266.9" cy="265.5" r="2.1" fill="#2e7d32" fill-opacity="0.5"/>
<circle cx="264.1" cy="354.3" r="2.1" fill="#c62828" fill-opacity="0.5"/>
<circle cx="297.8" cy="398.0" r="2.1" fill="#c62828" fill-opacity="0.5"/>
<circle cx="302.2" cy="381.2" r="2.1" fill="#c62828" fill-opacity="0.5"/>
<circle cx="443.4" cy="285.1" r="2.1" fill="#c62828" fill-opacity="0.5"/>
<circle cx="302.7" cy="371.5" r="2.1" fill="#c62828" fill-opacity="0.5"/>
<circle cx="243.2" cy="404.0" r="2.1" fill="#c62828" fill-opacity="0.5"/>
<circle cx="310.6" cy="291.5" r="2.1" fill="#2e7d32" fill-opacity="0.5"/>
<circle cx="204.8" cy="301.2" r="2.1" fill="#c62828" fill-opacity="0.5"/>
<circle cx="351.4" cy="366.5" r="2.1" fill="#c62828" fill-opacity="0.5"/>
<circle cx="347.8" cy="340.4" r="2.1" fill="#c62828" fill-opacity="0.5"/>
<circle cx="331.8" cy="190.4" r="2.1" fill="#c62828" fill-opacity="0.5"/>
<circle cx="329.0" cy="266.4" r="2.1" fill="#2e7d32" fill-opacity="0.5"/>
<circle cx="282.3" cy="106.0" r="2.1" fill="#c62828" fill-opacity="0.5"/>
<circle cx="232.2" cy="247.2" r="2.1" fill="#c62828" fill-opacity="0.5"/>
<circle cx="339.8" cy="336.1" r="2.1" fill="#c62828" fill-opacity="0.5"/>
<circle cx="269.1" cy="151.3" r="2.1" fill="#c62828" fill-opacity="0.5"/>
<circle cx="300.0" cy="229.6" r="2.1" fill="#c62828" fill-opacity="0.5"/>
<circle cx="374.5" cy="220.6" r="2.1" fill="#c62828" fill-opacity="0.5"/>
<circle cx="344.3" cy="447.7" r="2.1" fill="#c62828" fill-opacity="0.5"/>
<circle cx="260.7" cy="301.4" r="2.1" fill="#2e7d32" fill-opacity="0.5"/>
<circle cx="204.8" cy="318.9" r="2.1" fill="#c62828" fill-opacity="0.5"/>
<circle cx="355.3" cy="367.4" r="2.1" fill="#c62828" fill-opacity="0.5"/>
<circle cx="228.3" cy="313.9" r="2.1" fill="#c62828" fill-opacity="0.5"/>
<circle cx="116.0" cy="331.7" r="2.1" fill="#c62828" fill-opacity="0.5"/>
<circle cx="267.7" cy="305.0" r="2.1" fill="#2e7d32" fill-opacity="0.5"/>
<circle cx="329.2" cy="217.3" r="2.1" fill="#c62828" fill-opacity="0.5"/>
<circle cx="278.1" cy="331.1" r="2.1" fill="#2e7d32" fill-opacity="0.5"/>
<circle cx="268.1" cy="256.7" r="2.1" fill="#2e7d32" fill-opacity="0.5"/>
<circle cx="396.1" cy="329.0" r="2.1" fill="#c62828" fill-opacity="0.5"/>
<circle cx="285.7" cy="313.5" r="2.1" fill="#2e7d32" fill-opacity="0.5"/>
<circle cx="362.0" cy="280.2" r="2.1" fill="#c62828" fill-opacity="0.5"/>
<circle cx="385.9" cy="226.2" r="2.1" fill="#c62828" fill-opacity="0.5"/>
<circle cx="416.4" cy="219.2" r="2.1" fill="#c62828" fill-opacity="0.5"/>
<circle cx="267.5" cy="341.7" r="2.1" fill="#2e7d32" fill-opacity="0.5"/>
<circle cx="298.1" cy="207.6" r="2.1" fill="#c62828" fill-opacity="0.5"/>
<circle cx="331.8" cy="313.9" r="2.1" fill="#2e7d32" fill-opacity="0.5"/>
<circle cx="255.0" cy="384.9" r="2.1" fill="#c62828" fill-opacity="0.5"/>
<circle cx="290.7" cy="313.0" r="2.1" fill="#2e7d32" fill-opacity="0.5"/>
<circle cx="186.6" cy="388.6" r="2.1" fill="#c62828" fill-opacity="0.5"/>
<circle cx="337.9" cy="313.5" r="2.1" fill="#2e7d32" fill-opacity="0.5"/>
<circle cx="268.2" cy="327.2" r="2.1" fill="#2e7d32" fill-opacity="0.5"/>
<circle cx="236.7" cy="186.6" r="2.1" fill="#c62828" fill-opacity="0.5"/>
<circle cx="271.6" cy="351.5" r="2.1" fill="#c62828" fill-opacity="0.5"/>
<circle cx="267.2" cy="317.8" r="2.1" fill="#2e7d32" fill-opacity="0.5"/>
<circle cx="120.0" cy="232.1" r="2.1" fill="#c62828" fill-opacity="0.5"/>
<circle cx="177.2" cy="340.2" r="2.1" fill="#c62828" fill-opacity="0.5"/>
<circle cx="251.7" cy="339.5" r="2.1" fill="#c62828" fill-opacity="0.5"/>
<circle cx="286.4" cy="374.8" r="2.1" fill="#c62828" fill-opacity="0.5"/>
<circle cx="304.5" cy="350.9" r="2.1" fill="#c62828" fill-opacity="0.5"/>
<circle cx="149.9" cy="270.0" r="2.1" fill="#c62828" fill-opacity="0.5"/>
<circle cx="214.9" cy="236.3" r="2.1" fill="#c62828" fill-opacity="0.5"/>
<circle cx="294.4" cy="308.7" r="2.1" fill="#2e7d32" fill-opacity="0.5"/>
<circle cx="246.0" cy="248.4" r="2.1" fill="#c62828" fill-opacity="0.5"/>
<circle cx="304.8" cy="350.3" r="2.1" fill="#c62828" fill-opacity="0.5"/>
<circle cx="291.3" cy="315.2" r="2.1" fill="#2e7d32" fill-opacity="0.5"/>
<circle cx="281.6" cy="283.7" r="2.1" fill="#2e7d32" fill-opacity="0.5"/>
<circle cx="325.9" cy="341.1" r="2.1" fill="#c62828" fill-opacity="0.5"/>
<circle cx="310.7" cy="130.8" r="2.1" fill="#c62828" fill-opacity="0.5"/>
<circle cx="100.1" cy="355.3" r="2.1" fill="#c62828" fill-opacity="0.5"/>
<circle cx="278.1" cy="320.2" r="2.1" fill="#2e7d32" fill-opacity="0.5"/>
<circle cx="240.2" cy="255.0" r="2.1" fill="#c62828" fill-opacity="0.5"/>
<circle cx="340.4" cy="276.2" r="2.1" fill="#c62828" fill-opacity="0.5"/>
<circle cx="372.4" cy="278.7" r="2.1" fill="#c62828" fill-opacity="0.5"/>
<circle cx="453.8" cy="328.0" r="2.1" fill="#c62828" fill-opacity="0.5"/>
<circle cx="321.4" cy="190.2" r="2.1" fill="#c62828" fill-opacity="0.5"/>
<circle cx="278.7" cy="303.4" r="2.1" fill="#2e7d32" fill-opacity="0.5"/>
<circle cx="229.9" cy="318.0" r="2.1" fill="#c62828" fill-opacity="0.5"/>
<circle cx="224.7" cy="271.5" r="2.1" fill="#c62828" fill-opacity="0.5"/>
<circle cx="319.8" cy="216.8" r="2.1" fill="#c62828" fill-opacity="0.5"/>
<circle cx="121.7" cy="321.0" r="2.1" fill="#c62828" fill-opacity="0.5"/>
<circle cx="386.5" cy="307.3" r="2.1" fill="#c62828" fill-opacity="0.5"/>
<circle cx="282.1" cy="363.9" r="2.1" fill="#c62828" fill-opacity="0.5"/>
<circle cx="405.2" cy="232.5" r="2.1" fill="#c62828" fill-opacity="0.5"/>
<circle cx="178.1" cy="321.2" r="2.1" fill="#c62828" fill-opacity="0.5"/>
<circle cx="339.2" cy="337.9" r="2.1" fill="#c62828" fill-opacity="0.5"/>
<circle cx="228.2" cy="460.8" r="2.1" fill="#c62828" fill-opacity="0.5"/>
<circle cx="304.0" cy="342.1" r="2.1" fill="#2e7d32" fill-opacity="0.5"/>
<circle cx="181.9" cy="446.2" r="2.1" fill="#c62828" fill-opacity="0.5"/>
<circle cx="308.6" cy="362.3" r="2.1" fill="#c62828" fill-opacity="0.5"/>
<circle cx="182.3" cy="144.2" r="2.1" fill="#c62828" fill-opacity="0.5"/>
<circle cx="201.1" cy="330.3" r="2.1" fill="#c62828" fill-opacity="0.5"/>
<circle cx="205.7" cy="418.2" r="2.1" fill="#c62828" fill-opacity="0.5"/>
<circle cx="301.7" cy="351.0" r="2.1" fill="#c62828" fill-opacity="0.5"/>
<circle cx="217.4" cy="382.8" r="2.1" fill="#c62828" fill-opacity="0.5"/>
<circle cx="314.6" cy="259.6" r="2.1" fill="#2e7d32" fill-opacity="0.5"/>
<circle cx="303.2" cy="388.3" r="2.1" fill="#c62828" fill-opacity="0.5"/>
<circle cx="313.3" cy="285.7" r="2.1" fill="#2e7d32" fill-opacity="0.5"/>
<circle cx="287.9" cy="363.2" r="2.1" fill="#c62828" fill-opacity="0.5"/>
<circle cx="344.3" cy="279.2" r="2.1" fill="#c62828" fill-opacity="0.5"/>
<circle cx="370.2" cy="323.1" r="2.1" fill="#c62828" fill-opacity="0.5"/>
<circle cx="315.9" cy="289.6" r="2.1" fill="#2e7d32" fill-opacity="0.5"/>
<circle cx="320.6" cy="295.8" r="2.1" fill="#2e7d32" fill-opacity="0.5"/>
<circle cx="160.6" cy="270.7" r="2.1" fill="#c62828" fill-opacity="0.5"/>
<circle cx="271.8" cy="225.5" r="2.1" fill="#c62828" fill-opacity="0.5"/>
<circle cx="311.7" cy="228.6" r="2.1" fill="#c62828" fill-opacity="0.5"/>
<circle cx="296.1" cy="244.0" r="2.1" fill="#c62828" fill-opacity="0.5"/>
<circle cx="180.0" cy="310.2" r="2.1" fill="#c62828" fill-opacity="0.5"/>
<circle cx="313.4" cy="284.3" r="2.1" fill="#2e7d32" fill-opacity="0.5"/>
<circle cx="382.9" cy="392.0" r="2.1" fill="#c62828" fill-opacity="0.5"/>
<circle cx="305.8" cy="466.6" r="2.1" fill="#c62828" fill-opacity="0.5"/>
<circle cx="268.4" cy="161.1" r="2.1" fill="#c62828" fill-opacity="0.5"/>
<circle cx="233.5" cy="369.6" r="2.1" fill="#c62828" fill-opacity="0.5"/>
<circle cx="372.7" cy="259.4" r="2.1" fill="#c62828" fill-opacity="0.5"/>
<circle cx="359.0" cy="326.3" r="2.1" fill="#c62828" fill-opacity="0.5"/>
<circle cx="292.8" cy="375.1" r="2.1" fill="#c62828" fill-opacity="0.5"/>
<circle cx="435.0" cy="345.7" r="2.1" fill="#c62828" fill-opacity="0.5"/>
<circle cx="376.4" cy="220.7" r="2.1" fill="#c62828" fill-opacity="0.5"/>
<circle cx="203.7" cy="237.2" r="2.1" fill="#c62828" fill-opacity="0.5"/>
<circle cx="325.4" cy="259.4" r="2.1" fill="#c62828" fill-opacity="0.5"/>
<circle cx="369.9" cy="472.2" r="2.1" fill="#c62828" fill-opacity="0.5"/>
<circle cx="363.2" cy="265.1" r="2.1" fill="#c62828" fill-opacity="0.5"/>
<circle cx="267.8" cy="319.7" r="2.1" fill="#2e7d32" fill-opacity="0.5"/>
<circle cx="348.7" cy="275.9" r="2.1" fill="#c62828" fill-opacity="0.5"/>
<circle cx="335.3" cy="219.9" r="2.1" fill="#c62828" fill-opacity="0.5"/>
<circle cx="317.9" cy="300.5" r="2.1" fill="#2e7d32" fill-opacity="0.5"/>
<circle cx="199.3" cy="375.4" r="2.1" fill="#c62828" fill-opacity="0.5"/>
<circle cx="291.2" cy="341.2" r="2.1" fill="#2e7d32" fill-opacity="0.5"/>
<circle cx="302.6" cy="342.1" r="2.1" fill="#2e7d32" fill-opacity="0.5"/>
<circle cx="373.6" cy="334.5" r="2.1" fill="#c62828" fill-opacity="0.5"/>
<circle cx="245.1" cy="298.6" r="2.1" fill="#2e7d32" fill-opacity="0.5"/>
<circle cx="108.5" cy="192.3" r="2.1" fill="#c62828" fill-opacity="0.5"/>
<circle cx="228.9" cy="293.0" r="2.1" fill="#c62828" fill-opacity="0.5"/>
<circle cx="320.5" cy="245.9" r="2.1" fill="#c62828" fill-opacity="0.5"/>
<circle cx="355.1" cy="473.6" r="2.1" fill="#c62828" fill-opacity="0.5"/>
<circle cx="171.0" cy="261.3" r="2.1" fill="#c62828" fill-opacity="0.5"/>
<circle cx="298.6" cy="247.5" r="2.1" fill="#c62828" fill-opacity="0.5"/>
<circle cx="277.3" cy="167.2" r="2.1" fill="#c62828" fill-opacity="0.5"/>
<circle cx="241.1" cy="230.5" r="2.1" fill="#c62828" fill-opacity="0.5"/>
<circle cx="353.5" cy="288.7" r="2.1" fill="#c62828" fill-opacity="0.5"/>
<circle cx="360.0" cy="241.8" r="2.1" fill="#c62828" fill-opacity="0.5"/>
<circle cx="259.7" cy="355.1" r="2.1" fill="#c62828" fill-opacity="0.5"/>
<circle cx="442.4" cy="393.6" r="2.1" fill="#c62828" fill-opacity="0.5"/>
<circle cx="199.6" cy="402.6" r="2.1" fill="#c62828" fill-opacity="0.5"/>
<circle cx="215.5" cy="294.3" r="2.1" fill="#c62828" fill-opacity="0.5"/>
<circle cx="334.9" cy="298.7" r="2.1" fill="#2e7d32" fill-opacity="0.5"/>
<circle cx="226.8" cy="240.4" r="2.1" fill="#c62828" fill-opacity="0.5"/>
<circle cx="228.7" cy="469.5" r="2.1" fill="#c62828" fill-opacity="0.5"/>
<circle cx="184.0" cy="277.3" r="2.1" fill="#c62828" fill-opacity="0.5"/>
<circle cx="389.1" cy="140.6" r="2.1" fill="#c62828" fill-opacity="0.5"/>
<circle cx="266.2" cy="256.4" r="2.1" fill="#2e7d32" fill-opacity="0.5"/>
<circle cx="313.4" cy="196.1" r="2.1" fill="#c62828" fill-opacity="0.5"/>
<circle cx="368.7" cy="283.4" r="2.1" fill="#c62828" fill-opacity="0.5"/>
<circle cx="236.7" cy="185.9" r="2.1" fill="#c62828" fill-opacity="0.5"/>
<circle cx="360.8" cy="301.4" r="2.1" fill="#c62828" fill-opacity="0.5"/>
<circle cx="228.2" cy="245.5" r="2.1" fill="#c62828" fill-opacity="0.5"/>
<circle cx="393.0" cy="352.4" r="2.1" fill="#c62828" fill-opacity="0.5"/>
<circle cx="436.7" cy="275.7" r="2.1" fill="#c62828" fill-opacity="0.5"/>
<circle cx="378.1" cy="390.5" r="2.1" fill="#c62828" fill-opacity="0.5"/>
<circle cx="269.8" cy="238.5" r="2.1" fill="#c62828" fill-opacity="0.5"/>
<circle cx="312.2" cy="209.9" r="2.1" fill="#c62828" fill-opacity="0.5"/>
<circle cx="357.5" cy="312.6" r="2.1" fill="#c62828" fill-opacity="0.5"/>
<circle cx="217.4" cy="273.1" r="2.1" fill="#c62828" fill-opacity="0.5"/>
<circle cx="245.6" cy="304.0" r="2.1" fill="#2e7d32" fill-opacity="0.5"/>
<circle cx="347.2" cy="228.5" r="2.1" fill="#c62828" fill-opacity="0.5"/>
<circle cx="360.5" cy="309.9" r="2.1" fill="#c62828" fill-opacity="0.5"/>
<circle cx="383.4" cy="216.4" r="2.1" fill="#c62828" fill-opacity="0.5"/>
<circle cx="176.0" cy="376.1" r="2.1" fill="#c62828" fill-opacity="0.5"/>
<circle cx="209.9" cy="277.7" r="2.1" fill="#c62828" fill-opacity="0.5"/>
<circle cx="266.4" cy="241.9" r="2.1" fill="#c62828" fill-opacity="0.5"/>
<circle cx="447.7" cy="311.2" r="2.1" fill="#c62828" fill-opacity="0.5"/>
<circle cx="282.3" cy="417.0" r="2.1" fill="#c62828" fill-opacity="0.5"/>
<circle cx="257.3" cy="396.0" r="2.1" fill="#c62828" fill-opacity="0.5"/>
<circle cx="377.0" cy="284.1" r="2.1" fill="#c62828" fill-opacity="0.5"/>
<circle cx="345.9" cy="214.8" r="2.1" fill="#c62828" fill-opacity="0.5"/>
<circle cx="265.2" cy="375.1" r="2.1" fill="#c62828" fill-opacity="0.5"/>
<circle cx="284.1" cy="147.9" r="2.1" fill="#c62828" fill-opacity="0.5"/>
<circle cx="277.5" cy="193.7" r="2.1" fill="#c62828" fill-opacity="0.5"/>
<circle cx="436.5" cy="173.2" r="2.1" fill="#c62828" fill-opacity="0.5"/>
<circle cx="275.4" cy="287.0" r="2.1" fill="#2e7d32" fill-opacity="0.5"/>
<circle cx="312.8" cy="335.5" r="2.1" fill="#2e7d32" fill-opacity="0.5"/>
<circle cx="310.9" cy="295.9" r="2.1" fill="#2e7d32" fill-opacity="0.5"/>
<circle cx="488.2" cy="237.3" r="2.1" fill="#c62828" fill-opacity="0.5"/>
<circle cx="315.5" cy="387.6" r="2.1" fill="#c62828" fill-opacity="0.5"/>
<circle cx="293.0" cy="494.5" r="2.1" fill="#c62828" fill-opacity="0.5"/>
<circle cx="337.4" cy="116.4" r="2.1" fill="#c62828" fill-opacity="0.5"/>
<circle cx="367.2" cy="320.9" r="2.1" fill="#c62828" fill-opacity="0.5"/>
<circle cx="221.1" cy="348.5" r="2.1" fill="#c62828" fill-opacity="0.5"/>
<circle cx="269.5" cy="324.5" r="2.1" fill="#2e7d32" fill-opacity="0.5"/>
<circle cx="366.2" cy="183.4" r="2.1" fill="#c62828" fill-opacity="0.5"/>
<circle cx="286.6" cy="233.2" r="2.1" fill="#c62828" fill-opacity="0.5"/>
<circle cx="355.9" cy="288.8" r="2.1" fill="#c62828" fill-opacity="0.5"/>
<circle cx="204.9" cy="193.5" r="2.1" fill="#c62828" fill-opacity="0.5"/>
<circle cx="289.2" cy="223.5" r="2.1" fill="#c62828" fill-opacity="0.5"/>
<circle cx="173.2" cy="268.7" r="2.1" fill="#c62828" fill-opacity="0.5"/>
<circle cx="377.2" cy="231.8" r="2.1" fill="#c62828" fill-opacity="0.5"/>
<circle cx="272.2" cy="224.6" r="2.1" fill="#c62828" fill-opacity="0.5"/>
<circle cx="364.1" cy="306.2" r="2.1" fill="#c62828" fill-opacity="0.5"/>
<circle cx="244.2" cy="242.3" r="2.1" fill="#c62828" fill-opacity="0.5"/>
<circle cx="298.9" cy="218.4" r="2.1" fill="#c62828" fill-opacity="0.5"/>
<circle cx="312.1" cy="307.9" r="2.1" fill="#2e7d32" fill-opacity="0.5"/>
<circle cx="277.8" cy="363.5" r="2.1" fill="#c62828" fill-opacity="0.5"/>
<circle cx="352.1" cy="346.0" r="2.1" fill="#c62828" fill-opacity="0.5"/>
<circle cx="238.2" cy="211.7" r="2.1" fill="#c62828" fill-opacity="0.5"/>
<circle cx="243.9" cy="280.1" r="2.1" fill="#2e7d32" fill-opacity="0.5"/>
<circle cx="333.8" cy="285.2" r="2.1" fill="#2e7d32" fill-opacity="0.5"/>
<circle cx="254.8" cy="230.1" r="2.1" fill="#c62828" fill-opacity="0.5"/>
<circle cx="262.5" cy="338.8" r="2.1" fill="#2e7d32" fill-opacity="0.5"/>
<circle cx="279.4" cy="326.0" r="2.1" fill="#2e7d32" fill-opacity="0.5"/>
<circle cx="206.9" cy="340.4" r="2.1" fill="#c62828" fill-opacity="0.5"/>
<circle cx="266.2" cy="277.6" r="2.1" fill="#2e7d32" fill-opacity="0.5"/>
<circle cx="351.5" cy="486.1" r="2.1" fill="#c62828" fill-opacity="0.5"/>
<circle cx="203.0" cy="273.4" r="2.1" fill="#c62828" fill-opacity="0.5"/>
<circle cx="238.3" cy="325.7" r="2.1" fill="#c62828" fill-opacity="0.5"/>
<circle cx="262.2" cy="346.5" r="2.1" fill="#c62828" fill-opacity="0.5"/>
<circle cx="333.6" cy="296.6" r="2.1" fill="#2e7d32" fill-opacity="0.5"/>
<circle cx="320.3" cy="251.5" r="2.1" fill="#c62828" fill-opacity="0.5"/>
<circle cx="259.0" cy="344.6" r="2.1" fill="#c62828" fill-opacity="0.5"/>
<circle cx="233.9" cy="311.4" r="2.1" fill="#c62828" fill-opacity="0.5"/>
<circle cx="470.4" cy="214.7" r="2.1" fill="#c62828" fill-opacity="0.5"/>
<circle cx="346.8" cy="227.9" r="2.1" fill="#c62828" fill-opacity="0.5"/>
<circle cx="217.8" cy="265.9" r="2.1" fill="#c62828" fill-opacity="0.5"/>
<circle cx="286.1" cy="242.5" r="2.1" fill="#c62828" fill-opacity="0.5"/>
<circle cx="206.9" cy="263.4" r="2.1" fill="#c62828" fill-opacity="0.5"/>
<circle cx="159.2" cy="298.7" r="2.1" fill="#c62828" fill-opacity="0.5"/>
<circle cx="276.3" cy="315.6" r="2.1" fill="#2e7d32" fill-opacity="0.5"/>
<circle cx="276.7" cy="339.4" r="2.1" fill="#2e7d32" fill-opacity="0.5"/>
<circle cx="259.1" cy="325.2" r="2.1" fill="#2e7d32" fill-opacity="0.5"/>
<circle cx="397.7" cy="337.4" r="2.1" fill="#c62828" fill-opacity="0.5"/>
<circle cx="316.4" cy="304.9" r="2.1" fill="#2e7d32" fill-opacity="0.5"/>
<circle cx="270.4" cy="201.5" r="2.1" fill="#c62828" fill-opacity="0.5"/>
<circle cx="334.3" cy="262.5" r="2.1" fill="#c62828" fill-opacity="0.5"/>
<circle cx="266.7" cy="249.4" r="2.1" fill="#c62828" fill-opacity="0.5"/>
<circle cx="346.5" cy="301.9" r="2.1" fill="#c62828" fill-opacity="0.5"/>
<circle cx="336.8" cy="277.4" r="2.1" fill="#c62828" fill-opacity="0.5"/>
<circle cx="180.7" cy="334.0" r="2.1" fill="#c62828" fill-opacity="0.5"/>
<circle cx="306.0" cy="342.5" r="2.1" fill="#2e7d32" fill-opacity="0.5"/>
<circle cx="289.6" cy="364.0" r="2.1" fill="#c62828" fill-opacity="0.5"/>
<circle cx="329.9" cy="367.4" r="2.1" fill="#c62828" fill-opacity="0.5"/>
<circle cx="268.6" cy="296.9" r="2.1" fill="#2e7d32" fill-opacity="0.5"/>
<circle cx="178.8" cy="332.1" r="2.1" fill="#c62828" fill-opacity="0.5"/>
<circle cx="227.7" cy="229.1" r="2.1" fill="#c62828" fill-opacity="0.5"/>
<circle cx="221.7" cy="233.6" r="2.1" fill="#c62828" fill-opacity="0.5"/>
<circle cx="209.3" cy="396.4" r="2.1" fill="#c62828" fill-opacity="0.5"/>
<circle cx="339.0" cy="325.9" r="2.1" fill="#c62828" fill-opacity="0.5"/>
<circle cx="186.2" cy="418.0" r="2.1" fill="#c62828" fill-opacity="0.5"/>
<circle cx="388.5" cy="326.3" r="2.1" fill="#c62828" fill-opacity="0.5"/>
<circle cx="420.9" cy="362.5" r="2.1" fill="#c62828" fill-opacity="0.5"/>
<circle cx="388.5" cy="279.4" r="2.1" fill="#c62828" fill-opacity="0.5"/>
<circle cx="322.3" cy="291.1" r="2.1" fill="#2e7d32" fill-opacity="0.5"/>
<circle cx="321.0" cy="240.3" r="2.1" fill="#c62828" fill-opacity="0.5"/>
<circle cx="185.5" cy="255.8" r="2.1" fill="#c62828" fill-opacity="0.5"/>
<circle cx="172.1" cy="388.8" r="2.1" fill="#c62828" fill-opacity="0.5"/>
<circle cx="338.7" cy="274.8" r="2.1" fill="#c62828" fill-opacity="0.5"/>
<circle cx="253.3" cy="361.6" r="2.1" fill="#c62828" fill-opacity="0.5"/>
<circle cx="148.9" cy="331.4" r="2.1" fill="#c62828" fill-opacity="0.5"/>
<circle cx="118.9" cy="323.8" r="2.1" fill="#c62828" fill-opacity="0.5"/>
<circle cx="280.9" cy="269.9" r="2.1" fill="#2e7d32" fill-opacity="0.5"/>
<circle cx="438.5" cy="396.8" r="2.1" fill="#c62828" fill-opacity="0.5"/>
<circle cx="367.1" cy="347.6" r="2.1" fill="#c62828" fill-opacity="0.5"/>
<circle cx="220.9" cy="436.7" r="2.1" fill="#c62828" fill-opacity="0.5"/>
<circle cx="448.7" cy="243.3" r="2.1" fill="#c62828" fill-opacity="0.5"/>
<circle cx="303.7" cy="223.1" r="2.1" fill="#c62828" fill-opacity="0.5"/>
<circle cx="153.4" cy="350.6" r="2.1" fill="#c62828" fill-opacity="0.5"/>
<circle cx="135.0" cy="219.4" r="2.1" fill="#c62828" fill-opacity="0.5"/>
<circle cx="197.0" cy="315.1" r="2.1" fill="#c62828" fill-opacity="0.5"/>
<circle cx="321.7" cy="195.0" r="2.1" fill="#c62828" fill-opacity="0.5"/>
<circle cx="273.3" cy="252.0" r="2.1" fill="#2e7d32" fill-opacity="0.5"/>
<circle cx="245.9" cy="273.5" r="2.1" fill="#2e7d32" fill-opacity="0.5"/>
<circle cx="392.4" cy="294.7" r="2.1" fill="#c62828" fill-opacity="0.5"/>
<circle cx="165.2" cy="461.9" r="2.1" fill="#c62828" fill-opacity="0.5"/>
<circle cx="350.7" cy="337.1" r="2.1" fill="#c62828" fill-opacity="0.5"/>
<circle cx="351.1" cy="334.2" r="2.1" fill="#c62828" fill-opacity="0.5"/>
<circle cx="365.0" cy="230.4" r="2.1" fill="#c62828" fill-opacity="0.5"/>
<circle cx="278.0" cy="378.7" r="2.1" fill="#c62828" fill-opacity="0.5"/>
<circle cx="269.7" cy="264.1" r="2.1" fill="#2e7d32" fill-opacity="0.5"/>
<circle cx="320.4" cy="443.6" r="2.1" fill="#c62828" fill-opacity="0.5"/>
<circle cx="292.7" cy="304.2" r="2.1" fill="#2e7d32" fill-opacity="0.5"/>
<circle cx="336.3" cy="414.6" r="2.1" fill="#c62828" fill-opacity="0.5"/>
<circle cx="316.2" cy="267.6" r="2.1" fill="#2e7d32" fill-opacity="0.5"/>
<circle cx="285.6" cy="351.7" r="2.1" fill="#c62828" fill-opacity="0.5"/>
<circle cx="229.5" cy="317.5" r="2.1" fill="#c62828" fill-opacity="0.5"/>
<circle cx="335.2" cy="438.5" r="2.1" fill="#c62828" fill-opacity="0.5"/>
<circle cx="343.3" cy="254.6" r="2.1" fill="#c62828" fill-opacity="0.5"/>
<circle cx="287.3" cy="359.6" r="2.1" fill="#c62828" fill-opacity="0.5"/>
<circle cx="205.6" cy="262.8" r="2.1" fill="#c62828" fill-opacity="0.5"/>
<circle cx="266.3" cy="409.7" r="2.1" fill="#c62828" fill-opacity="0.5"/>
<circle cx="336.3" cy="405.1" r="2.1" fill="#c62828" fill-opacity="0.5"/>
<circle cx="355.6" cy="384.2" r="2.1" fill="#c62828" fill-opacity="0.5"/>
<circle cx="372.1" cy="198.0" r="2.1" fill="#c62828" fill-opacity="0.5"/>
<circle cx="387.7" cy="268.2" r="2.1" fill="#c62828" fill-opacity="0.5"/>
<circle cx="202.9" cy="241.1" r="2.1" fill="#c62828" fill-opacity="0.5"/>
<circle cx="204.2" cy="274.7" r="2.1" fill="#c62828" fill-opacity="0.5"/>
<circle cx="250.6" cy="241.1" r="2.1" fill="#c62828" fill-opacity="0.5"/>
<circle cx="340.6" cy="343.7" r="2.1" fill="#c62828" fill-opacity="0.5"/>
<circle cx="220.4" cy="381.1" r="2.1" fill="#c62828" fill-opacity="0.5"/>
<circle cx="286.1" cy="288.7" r="2.1" fill="#2e7d32" fill-opacity="0.5"/>
<circle cx="225.9" cy="313.6" r="2.1" fill="#c62828" fill-opacity="0.5"/>
<circle cx="265.1" cy="229.3" r="2.1" fill="#c62828" fill-opacity="0.5"/>
<circle cx="406.5" cy="262.8" r="2.1" fill="#c62828" fill-opacity="0.5"/>
<circle cx="238.4" cy="370.6" r="2.1" fill="#c62828" fill-opacity="0.5"/>
<circle cx="406.2" cy="318.2" r="2.1" fill="#c62828" fill-opacity="0.5"/>
<circle cx="179.3" cy="334.9" r="2.1" fill="#c62828" fill-opacity="0.5"/>
<circle cx="329.4" cy="395.9" r="2.1" fill="#c62828" fill-opacity="0.5"/>
<circle cx="235.2" cy="229.5" r="2.1" fill="#c62828" fill-opacity="0.5"/>
<circle cx="200.0" cy="317.5" r="2.1" fill="#c62828" fill-opacity="0.5"/>
<circle cx="263.2" cy="283.9" r="2.1" fill="#2e7d32" fill-opacity="0.5"/>
<circle cx="295.6" cy="343.5" r="2.1" fill="#2e7d32" fill-opacity="0.5"/>
<circle cx="221.9" cy="201.7" r="2.1" fill="#c62828" fill-opacity="0.5"/>
<circle cx="321.6" cy="446.8" r="2.1" fill="#c62828" fill-opacity="0.5"/>
<circle cx="177.8" cy="361.8" r="2.1" fill="#c62828" fill-opacity="0.5"/>
<circle cx="293.1" cy="212.7" r="2.1" fill="#c62828" fill-opacity="0.5"/>
<circle cx="261.7" cy="219.2" r="2.1" fill="#c62828" fill-opacity="0.5"/>
<circle cx="295.6" cy="238.4" r="2.1" fill="#c62828" fill-opacity="0.5"/>
<circle cx="207.8" cy="263.2" r="2.1" fill="#c62828" fill-opacity="0.5"/>
<circle cx="177.1" cy="361.5" r="2.1" fill="#c62828" fill-opacity="0.5"/>
<circle cx="246.5" cy="332.5" r="2.1" fill="#c62828" fill-opacity="0.5"/>
<circle cx="287.7" cy="301.1" r="2.1" fill="#2e7d32" fill-opacity="0.5"/>
<circle cx="359.7" cy="216.6" r="2.1" fill="#c62828" fill-opacity="0.5"/>
<circle cx="330.2" cy="274.6" r="2.1" fill="#2e7d32" fill-opacity="0.5"/>
<circle cx="279.1" cy="281.1" r="2.1" fill="#2e7d32" fill-opacity="0.5"/>
<circle cx="238.7" cy="291.9" r="2.1" fill="#c62828" fill-opacity="0.5"/>
<circle cx="368.7" cy="209.8" r="2.1" fill="#c62828" fill-opacity="0.5"/>
<circle cx="263.8" cy="235.2" r="2.1" fill="#c62828" fill-opacity="0.5"/>
<circle cx="354.4" cy="377.2" r="2.1" fill="#c62828" fill-opacity="0.5"/>
<circle cx="365.6" cy="212.8" r="2.1" fill="#c62828" fill-opacity="0.5"/>
<circle cx="217.1" cy="376.8" r="2.1" fill="#c62828" fill-opacity="0.5"/>
<circle cx="242.3" cy="294.3" r="2.1" fill="#2e7d32" fill-opacity="0.5"/>
<circle cx="378.0" cy="249.8" r="2.1" fill="#c62828" fill-opacity="0.5"/>
<circle cx="323.7" cy="337.6" r="2.1" fill="#2e7d32" fill-opacity="0.5"/>
<circle cx="283.9" cy="194.9" r="2.1" fill="#c62828" fill-opacity="0.5"/>
<circle cx="377.9" cy="230.4" r="2.1" fill="#c62828" fill-opacity="0.5"/>
<circle cx="187.2" cy="220.6" r="2.1" fill="#c62828" fill-opacity="0.5"/>
<circle cx="246.0" cy="236.5" r="2.1" fill="#c62828" fill-opacity="0.5"/>
<circle cx="324.4" cy="228.5" r="2.1" fill="#c62828" fill-opacity="0.5"/>
<circle cx="243.7" cy="232.7" r="2.1" fill="#c62828" fill-opacity="0.5"/>
<circle cx="225.1" cy="314.7" r="2.1" fill="#c62828" fill-opacity="0.5"/>
<circle cx="239.8" cy="215.6" r="2.1" fill="#c62828" fill-opacity="0.5"/>
<circle cx="417.7" cy="261.7" r="2.1" fill="#c62828" fill-opacity="0.5"/>
<circle cx="262.0" cy="255.9" r="2.1" fill="#c62828" fill-opacity="0.5"/>
<circle cx="323.2" cy="340.0" r="2.1" fill="#c62828" fill-opacity="0.5"/>
<circle cx="293.5" cy="281.1" r="2.1" fill="#2e7d32" fill-opacity="0.5"/>
<circle cx="149.5" cy="308.8" r="2.1" fill="#c62828" fill-opacity="0.5"/>
<circle cx="320.7" cy="299.9" r="2.1" fill="#2e7d32" fill-opacity="0.5"/>
<circle cx="294.8" cy="319.5" r="2.1" fill="#2e7d32" fill-opacity="0.5"/>
<circle cx="255.4" cy="403.6" r="2.1" fill="#c62828" fill-opacity="0.5"/>
<circle cx="141.7" cy="354.8" r="2.1" fill="#c62828" fill-opacity="0.5"/>
<circle cx="496.1" cy="334.7" r="2.1" fill="#c62828" fill-opacity="0.5"/>
<circle cx="157.9" cy="427.4" r="2.1" fill="#c62828" fill-opacity="0.5"/>
<circle cx="278.2" cy="254.9" r="2.1" fill="#2e7d32" fill-opacity="0.5"/>
<circle cx="335.9" cy="66.1" r="2.1" fill="#c62828" fill-opacity="0.5"/>
<circle cx="256.8" cy="291.6" r="2.1" fill="#2e7d32" fill-opacity="0.5"/>
<circle cx="335.1" cy="255.3" r="2.1" fill="#c62828" fill-opacity="0.5"/>
<circle cx="269.0" cy="250.3" r="2.1" fill="#c62828" fill-opacity="0.5"/>
<circle cx="383.1" cy="328.8" r="2.1" fill="#c62828" fill-opacity="0.5"/>
<circle cx="296.5" cy="304.3" r="2.1" fill="#2e7d32" fill-opacity="0.5"/>
<circle cx="308.6" cy="413.8" r="2.1" fill="#c62828" fill-opacity="0.5"/>
<circle cx="421.5" cy="192.8" r="2.1" fill="#c62828" fill-opacity="0.5"/>
<circle cx="279.6" cy="233.6" r="2.1" fill="#c62828" fill-opacity="0.5"/>
<circle cx="281.0" cy="368.1" r="2.1" fill="#c62828" fill-opacity="0.5"/>
<circle cx="384.4" cy="321.4" r="2.1" fill="#c62828" fill-opacity="0.5"/>
<circle cx="347.5" cy="461.0" r="2.1" fill="#c62828" fill-opacity="0.5"/>
<circle cx="263.2" cy="194.0" r="2.1" fill="#c62828" fill-opacity="0.5"/>
<circle cx="343.6" cy="309.9" r="2.1" fill="#c62828" fill-opacity="0.5"/>
<circle cx="399.2" cy="209.3" r="2.1" fill="#c62828" fill-opacity="0.5"/>
<circle cx="357.2" cy="419.1" r="2.1" fill="#c62828" fill-opacity="0.5"/>
<circle cx="253.1" cy="252.0" r="2.1" fill="#c62828" fill-opacity="0.5"/>
<circle cx="166.8" cy="207.6" r="2.1" fill="#c62828" fill-opacity="0.5"/>
<circle cx="319.6" cy="334.4" r="2.1" fill="#2e7d32" fill-opacity="0.5"/>
<circle cx="415.3" cy="407.7" r="2.1" fill="#c62828" fill-opacity="0.5"/>
<circle cx="324.8" cy="330.2" r="2.1" fill="#2e7d32" fill-opacity="0.5"/>
<circle cx="330.3" cy="353.0" r="2.1" fill="#c62828" fill-opacity="0.5"/>
<circle cx="360.6" cy="332.6" r="2.1" fill="#c62828" fill-opacity="0.5"/>
<circle cx="320.6" cy="221.0" r="2.1" fill="#c62828" fill-opacity="0.5"/>
<circle cx="360.4" cy="261.5" r="2.1" fill="#c62828" fill-opacity="0.5"/>
<circle cx="244.4" cy="384.3" r="2.1" fill="#c62828" fill-opacity="0.5"/>
<circle cx="293.9" cy="326.7" r="2.1" fill="#2e7d32" fill-opacity="0.5"/>
<circle cx="305.2" cy="226.8" r="2.1" fill="#c62828" fill-opacity="0.5"/>
<circle cx="295.1" cy="213.7" r="2.1" fill="#c62828" fill-opacity="0.5"/>
<circle cx="258.8" cy="343.3" r="2.1" fill="#c62828" fill-opacity="0.5"/>
<circle cx="347.2" cy="260.5" r="2.1" fill="#c62828" fill-opacity="0.5"/>
<circle cx="347.7" cy="350.8" r="2.1" fill="#c62828" fill-opacity="0.5"/>
<circle cx="264.1" cy="231.8" r="2.1" fill="#c62828" fill-opacity="0.5"/>
<circle cx="261.6" cy="194.4" r="2.1" fill="#c62828" fill-opacity="0.5"/>
<circle cx="337.5" cy="340.7" r="2.1" fill="#c62828" fill-opacity="0.5"/>
<circle cx="387.1" cy="264.6" r="2.1" fill="#c62828" fill-opacity="0.5"/>
<circle cx="265.2" cy="332.6" r="2.1" fill="#2e7d32" fill-opacity="0.5"/>
<circle cx="329.9" cy="240.8" r="2.1" fill="#c62828" fill-opacity="0.5"/>
<circle cx="377.0" cy="265.4" r="2.1" fill="#c62828" fill-opacity="0.5"/>
<circle cx="156.9" cy="371.7" r="2.1" fill="#c62828" fill-opacity="0.5"/>
<circle cx="286.8" cy="284.2" r="2.1" fill="#2e7d32" fill-opacity="0.5"/>
<circle cx="191.5" cy="337.4" r="2.1" fill="#c62828" fill-opacity="0.5"/>
<circle cx="234.2" cy="326.2" r="2.1" fill="#c62828" fill-opacity="0.5"/>
<circle cx="308.3" cy="204.3" r="2.1" fill="#c62828" fill-opacity="0.5"/>
<circle cx="203.3" cy="225.7" r="2.1" fill="#c62828" fill-opacity="0.5"/>
<circle cx="346.8" cy="349.8" r="2.1" fill="#c62828" fill-opacity="0.5"/>
<circle cx="294.8" cy="288.7" r="2.1" fill="#2e7d32" fill-opacity="0.5"/>
<circle cx="309.3" cy="228.2" r="2.1" fill="#c62828" fill-opacity="0.5"/>
<circle cx="180.8" cy="367.4" r="2.1" fill="#c62828" fill-opacity="0.5"/>
<circle cx="239.1" cy="337.2" r="2.1" fill="#c62828" fill-opacity="0.5"/>
<circle cx="206.0" cy="221.9" r="2.1" fill="#c62828" fill-opacity="0.5"/>
<circle cx="383.7" cy="356.5" r="2.1" fill="#c62828" fill-opacity="0.5"/>
<circle cx="175.7" cy="407.6" r="2.1" fill="#c62828" fill-opacity="0.5"/>
<circle cx="294.5" cy="330.2" r="2.1" fill="#2e7d32" fill-opacity="0.5"/>
<circle cx="395.6" cy="282.0" r="2.1" fill="#c62828" fill-opacity="0.5"/>
<circle cx="324.0" cy="351.4" r="2.1" fill="#c62828" fill-opacity="0.5"/>
<circle cx="265.2" cy="326.5" r="2.1" fill="#2e7d32" fill-opacity="0.5"/>
<circle cx="273.9" cy="275.7" r="2.1" fill="#2e7d32" fill-opacity="0.5"/>
<circle cx="181.2" cy="221.6" r="2.1" fill="#c62828" fill-opacity="0.5"/>
<circle cx="236.1" cy="257.1" r="2.1" fill="#c62828" fill-opacity="0.5"/>
<circle cx="370.7" cy="287.0" r="2.1" fill="#c62828" fill-opacity="0.5"/>
<circle cx="227.9" cy="377.2" r="2.1" fill="#c62828" fill-opacity="0.5"/>
<circle cx="249.0" cy="316.9" r="2.1" fill="#2e7d32" fill-opacity="0.5"/>
<circle cx="141.9" cy="331.0" r="2.1" fill="#c62828" fill-opacity="0.5"/>
<circle cx="312.9" cy="398.1" r="2.1" fill="#c62828" fill-opacity="0.5"/>
<circle cx="364.8" cy="343.8" r="2.1" fill="#c62828" fill-opacity="0.5"/>
<circle cx="268.3" cy="331.2" r="2.1" fill="#2e7d32" fill-opacity="0.5"/>
<circle cx="393.3" cy="388.5" r="2.1" fill="#c62828" fill-opacity="0.5"/>
<circle cx="331.9" cy="496.8" r="2.1" fill="#c62828" fill-opacity="0.5"/>
<circle cx="494.1" cy="426.4" r="2.1" fill="#c62828" fill-opacity="0.5"/>
<circle cx="315.5" cy="384.7" r="2.1" fill="#c62828" fill-opacity="0.5"/>
<circle cx="301.6" cy="286.0" r="2.1" fill="#2e7d32" fill-opacity="0.5"/>
<circle cx="295.1" cy="292.4" r="2.1" fill="#2e7d32" fill-opacity="0.5"/>
<circle cx="236.0" cy="232.1" r="2.1" fill="#c62828" fill-opacity="0.5"/>
<circle cx="394.2" cy="229.1" r="2.1" fill="#c62828" fill-opacity="0.5"/>
<circle cx="310.4" cy="395.5" r="2.1" fill="#c62828" fill-opacity="0.5"/>
<circle cx="365.2" cy="452.9" r="2.1" fill="#c62828" fill-opacity="0.5"/>
<circle cx="313.6" cy="344.3" r="2.1" fill="#2e7d32" fill-opacity="0.5"/>
<circle cx="313.3" cy="222.5" r="2.1" fill="#c62828" fill-opacity="0.5"/>
<circle cx="391.7" cy="311.8" r="2.1" fill="#c62828" fill-opacity="0.5"/>
<circle cx="301.5" cy="351.3" r="2.1" fill="#c62828" fill-opacity="0.5"/>
<circle cx="376.3" cy="282.8" r="2.1" fill="#c62828" fill-opacity="0.5"/>
<circle cx="329.6" cy="335.2" r="2.1" fill="#c62828" fill-opacity="0.5"/>
<circle cx="343.1" cy="249.2" r="2.1" fill="#c62828" fill-opacity="0.5"/>
<circle cx="250.1" cy="279.0" r="2.1" fill="#2e7d32" fill-opacity="0.5"/>
<circle cx="385.8" cy="315.1" r="2.1" fill="#c62828" fill-opacity="0.5"/>
<circle cx="302.1" cy="255.7" r="2.1" fill="#2e7d32" fill-opacity="0.5"/>
<circle cx="382.8" cy="230.3" r="2.1" fill="#c62828" fill-opacity="0.5"/>
<circle cx="175.5" cy="243.8" r="2.1" fill="#c62828" fill-opacity="0.5"/>
<circle cx="237.6" cy="409.5" r="2.1" fill="#c62828" fill-opacity="0.5"/>
<circle cx="264.4" cy="288.9" r="2.1" fill="#2e7d32" fill-opacity="0.5"/>
<circle cx="256.0" cy="286.4" r="2.1" fill="#2e7d32" fill-opacity="0.5"/>
<circle cx="261.2" cy="481.9" r="2.1" fill="#c62828" fill-opacity="0.5"/>
<circle cx="370.9" cy="309.2" r="2.1" fill="#c62828" fill-opacity="0.5"/>
<circle cx="241.5" cy="317.8" r="2.1" fill="#c62828" fill-opacity="0.5"/>
<circle cx="322.5" cy="282.3" r="2.1" fill="#2e7d32" fill-opacity="0.5"/>
<circle cx="318.6" cy="247.3" r="2.1" fill="#c62828" fill-opacity="0.5"/>
<circle cx="252.6" cy="339.6" r="2.1" fill="#c62828" fill-opacity="0.5"/>
<circle cx="199.6" cy="337.2" r="2.1" fill="#c62828" fill-opacity="0.5"/>
<circle cx="366.8" cy="253.8" r="2.1" fill="#c62828" fill-opacity="0.5"/>
<circle cx="388.9" cy="234.5" r="2.1" fill="#c62828" fill-opacity="0.5"/>
<circle cx="168.0" cy="269.7" r="2.1" fill="#c62828" fill-opacity="0.5"/>
<circle cx="301.1" cy="268.0" r="2.1" fill="#2e7d32" fill-opacity="0.5"/>
<circle cx="186.8" cy="344.6" r="2.1" fill="#c62828" fill-opacity="0.5"/>
<circle cx="369.8" cy="277.7" r="2.1" fill="#c62828" fill-opacity="0.5"/>
<circle cx="260.2" cy="282.7" r="2.1" fill="#2e7d32" fill-opacity="0.5"/>
<circle cx="234.3" cy="386.7" r="2.1" fill="#c62828" fill-opacity="0.5"/>
<circle cx="198.8" cy="101.8" r="2.1" fill="#c62828" fill-opacity="0.5"/>
<circle cx="339.8" cy="242.3" r="2.1" fill="#c62828" fill-opacity="0.5"/>
<circle cx="315.9" cy="332.3" r="2.1" fill="#2e7d32" fill-opacity="0.5"/>
<circle cx="327.4" cy="277.4" r="2.1" fill="#2e7d32" fill-opacity="0.5"/>
<circle cx="395.8" cy="218.0" r="2.1" fill="#c62828" fill-opacity="0.5"/>
<circle cx="394.7" cy="413.7" r="2.1" fill="#c62828" fill-opacity="0.5"/>
<circle cx="311.6" cy="184.1" r="2.1" fill="#c62828" fill-opacity="0.5"/>
<circle cx="279.6" cy="313.3" r="2.1" fill="#2e7d32" fill-opacity="0.5"/>
<circle cx="348.8" cy="389.3" r="2.1" fill="#c62828" fill-opacity="0.5"/>
<circle cx="354.4" cy="342.8" r="2.1" fill="#c62828" fill-opacity="0.5"/>
<circle cx="349.4" cy="204.6" r="2.1" fill="#c62828" fill-opacity="0.5"/>
<circle cx="231.7" cy="255.7" r="2.1" fill="#c62828" fill-opacity="0.5"/>
<circle cx="170.5" cy="301.3" r="2.1" fill="#c62828" fill-opacity="0.5"/>
<circle cx="248.7" cy="390.8" r="2.1" fill="#c62828" fill-opacity="0.5"/>
<circle cx="271.9" cy="393.6" r="2.1" fill="#c62828" fill-opacity="0.5"/>
<circle cx="265.0" cy="300.2" r="2.1" fill="#2e7d32" fill-opacity="0.5"/>
<circle cx="272.5" cy="264.2" r="2.1" fill="#2e7d32" fill-opacity="0.5"/>
<circle cx="255.7" cy="470.5" r="2.1" fill="#c62828" fill-opacity="0.5"/>
<circle cx="323.8" cy="346.3" r="2.1" fill="#c62828" fill-opacity="0.5"/>
<circle cx="321.3" cy="351.9" r="2.1" fill="#c62828" fill-opacity="0.5"/>
<circle cx="341.9" cy="213.5" r="2.1" fill="#c62828" fill-opacity="0.5"/>
<circle cx="313.7" cy="280.3" r="2.1" fill="#2e7d32" fill-opacity="0.5"/>
<circle cx="324.1" cy="343.1" r="2.1" fill="#c62828" fill-opacity="0.5"/>
<circle cx="332.5" cy="279.6" r="2.1" fill="#2e7d32" fill-opacity="0.5"/>
<circle cx="276.4" cy="381.0" r="2.1" fill="#c62828" fill-opacity="0.5"/>
<circle cx="280.7" cy="343.4" r="2.1" fill="#2e7d32" fill-opacity="0.5"/>
<circle cx="333.0" cy="394.9" r="2.1" fill="#c62828" fill-opacity="0.5"/>
<circle cx="306.0" cy="337.3" r="2.1" fill="#2e7d32" fill-opacity="0.5"/>
<circle cx="374.2" cy="288.7" r="2.1" fill="#c62828" fill-opacity="0.5"/>
<circle cx="369.8" cy="442.2" r="2.1" fill="#c62828" fill-opacity="0.5"/>
<circle cx="305.9" cy="238.9" r="2.1" fill="#c62828" fill-opacity="0.5"/>
<circle cx="283.9" cy="281.5" r="2.1" fill="#2e7d32" fill-opacity="0.5"/>
<circle cx="284.4" cy="145.3" r="2.1" fill="#c62828" fill-opacity="0.5"/>
<circle cx="398.4" cy="321.6" r="2.1" fill="#c62828" fill-opacity="0.5"/>
<circle cx="203.3" cy="229.4" r="2.1" fill="#c62828" fill-opacity="0.5"/>
<circle cx="315.9" cy="451.9" r="2.1" fill="#c62828" fill-opacity="0.5"/>
<circle cx="217.0" cy="295.9" r="2.1" fill="#c62828" fill-opacity="0.5"/>
<circle cx="174.5" cy="361.4" r="2.1" fill="#c62828" fill-opacity="0.5"/>
<circle cx="265.3" cy="410.9" r="2.1" fill="#c62828" fill-opacity="0.5"/>
<circle cx="225.7" cy="276.3" r="2.1" fill="#c62828" fill-opacity="0.5"/>
<circle cx="361.4" cy="306.6" r="2.1" fill="#c62828" fill-opacity="0.5"/>
<circle cx="343.8" cy="422.2" r="2.1" fill="#c62828" fill-opacity="0.5"/>
<circle cx="289.3" cy="286.3" r="2.1" fill="#2e7d32" fill-opacity="0.5"/>
<circle cx="310.0" cy="278.0" r="2.1" fill="#2e7d32" fill-opacity="0.5"/>
<circle cx="184.8" cy="241.4" r="2.1" fill="#c62828" fill-opacity="0.5"/>
<circle cx="215.9" cy="232.7" r="2.1" fill="#c62828" fill-opacity="0.5"/>
<circle cx="242.8" cy="410.2" r="2.1" fill="#c62828" fill-opacity="0.5"/>
<circle cx="419.5" cy="200.5" r="2.1" fill="#c62828" fill-opacity="0.5"/>
<circle cx="275.7" cy="216.4" r="2.1" fill="#c62828" fill-opacity="0.5"/>
<circle cx="359.6" cy="411.0" r="2.1" fill="#c62828" fill-opacity="0.5"/>
<line x1="30" y1="605" x2="81.6" y2="605" stroke="#607d8b" stroke-width="2"/>
<text x="87.6" y="609" font-size="11" fill="#607d8b">10 in</text>
<text x="290.0" y="629" font-size="14" text-anchor="middle" fill="#263238">.223 at 300 yd, 4 MOA group &#8212; 500 shots, 104 inside the 20&#8243; zone (20.8% hit)</text>
</svg>